<?xml version="1.0" encoding="UTF-8" standalone="no"?>
<!DOCTYPE svg PUBLIC "-//W3C//DTD SVG 1.1//EN"
 "http://www.w3.org/Graphics/SVG/1.1/DTD/svg11.dtd">
<!-- Generated by graphviz version 8.0.5 (0)
 -->
<!-- Title: G Pages: 1 -->
<svg width="430pt" height="288pt"
 viewBox="0.00 0.00 429.79 288.00" xmlns="http://www.w3.org/2000/svg" xmlns:xlink="http://www.w3.org/1999/xlink">
<g id="graph0" class="graph" transform="scale(0.611465 0.611465) rotate(0) translate(4 467)">
<title>G</title>
<polygon fill="white" stroke="none" points="-4,4 -4,-467 698.88,-467 698.88,4 -4,4"/>
<g id="clust1" class="cluster">
<title>cluster_0</title>
<polygon fill="#000000" fill-opacity="0.058824" stroke="#000000" stroke-opacity="0.058824" points="34.61,-8 34.61,-85 147.81,-85 147.81,-8 34.61,-8"/>
<text text-anchor="middle" x="91.21" y="-67.7" font-family="Times,serif" font-size="14.00">.</text>
</g>
<g id="clust2" class="cluster">
<title>cluster_1</title>
<polygon fill="#000000" fill-opacity="0.058824" stroke="#000000" stroke-opacity="0.058824" points="12.24,-93 12.24,-370 682.64,-370 682.64,-93 12.24,-93"/>
<text text-anchor="middle" x="347.44" y="-352.7" font-family="Times,serif" font-size="14.00">Elminator</text>
</g>
<g id="clust3" class="cluster">
<title>cluster_2</title>
<polygon fill="#000000" fill-opacity="0.058824" stroke="#000000" stroke-opacity="0.058824" points="200.78,-101 200.78,-252 670.41,-252 670.41,-101 200.78,-101"/>
<text text-anchor="middle" x="435.59" y="-234.7" font-family="Times,serif" font-size="14.00">ELM</text>
</g>
<g id="clust4" class="cluster">
<title>cluster_3</title>
<polygon fill="#000000" fill-opacity="0.058824" stroke="#000000" stroke-opacity="0.058824" points="544.01,-260 544.01,-337 668.69,-337 668.69,-260 544.01,-260"/>
<text text-anchor="middle" x="606.35" y="-319.7" font-family="Times,serif" font-size="14.00">Generics</text>
</g>
<g id="clust5" class="cluster">
<title>cluster_4</title>
<polygon fill="#000000" fill-opacity="0.058824" stroke="#000000" stroke-opacity="0.058824" points="37.67,-378 37.67,-455 144.75,-455 144.75,-378 37.67,-378"/>
<text text-anchor="middle" x="91.21" y="-437.7" font-family="Times,serif" font-size="14.00">test</text>
</g>
<!-- u7 -->
<g id="node1" class="node">
<title>u7</title>
<polygon fill="#ffffbb" stroke="black" stroke-width="0" points="120.64,-52 62.64,-52 62.64,-16 120.64,-16 120.64,-52"/>
<text text-anchor="middle" x="91.64" y="-29.32" font-family="Times,serif" font-size="14.00">Setup</text>
</g>
<!-- u0 -->
<g id="node2" class="node">
<title>u0</title>
<polygon fill="#bbffbb" stroke="black" stroke-width="2" points="135.27,-296 48.02,-296 48.02,-260 135.27,-260 135.27,-296"/>
<text text-anchor="middle" x="91.64" y="-273.32" font-family="Times,serif" font-size="14.00">Elminator</text>
</g>
<!-- u2 -->
<g id="node3" class="node">
<title>u2</title>
<polygon fill="#bbbbff" stroke="black" stroke-width="0" points="478.64,-296 424.64,-296 424.64,-260 478.64,-260 478.64,-296"/>
<text text-anchor="middle" x="451.64" y="-273.32" font-family="Times,serif" font-size="14.00">Lib</text>
</g>
<!-- u0&#45;&gt;u2 -->
<g id="edge2" class="edge">
<title>u0&#45;&gt;u2</title>
<path fill="none" stroke="black" d="M135.47,-278C206.53,-278 347.54,-278 414.16,-278"/>
<polygon fill="black" stroke="black" points="413.95,-281.5 423.95,-278 413.95,-274.5 413.95,-281.5"/>
</g>
<!-- u3 -->
<g id="node4" class="node">
<title>u3</title>
<polygon fill="#ffbbbb" stroke="black" stroke-width="0" points="325.02,-219 236.27,-219 236.27,-183 325.02,-183 325.02,-219"/>
<text text-anchor="middle" x="280.64" y="-196.32" font-family="Times,serif" font-size="14.00">Generator</text>
</g>
<!-- u0&#45;&gt;u3 -->
<g id="edge3" class="edge">
<title>u0&#45;&gt;u3</title>
<path fill="none" stroke="black" d="M135.55,-260.33C162.55,-249.21 197.62,-234.77 226.4,-222.92"/>
<polygon fill="black" stroke="black" points="227.38,-225.89 235.3,-218.85 224.72,-219.42 227.38,-225.89"/>
</g>
<!-- u1 -->
<g id="node8" class="node">
<title>u1</title>
<polygon fill="#bbffff" stroke="black" stroke-width="0" points="639.39,-304 573.89,-304 573.89,-268 639.39,-268 639.39,-304"/>
<text text-anchor="middle" x="606.64" y="-281.32" font-family="Times,serif" font-size="14.00">Simple</text>
</g>
<!-- u0&#45;&gt;u1 -->
<g id="edge1" class="edge">
<title>u0&#45;&gt;u1</title>
<path fill="none" stroke="black" d="M135.68,-285.08C207.61,-296 356.78,-314.7 482.89,-305 509.81,-302.93 539.75,-298.34 563.32,-294.19"/>
<polygon fill="black" stroke="black" points="563.79,-297.48 573.01,-292.27 562.55,-290.6 563.79,-297.48"/>
</g>
<!-- u2&#45;&gt;u1 -->
<g id="edge4" class="edge">
<title>u2&#45;&gt;u1</title>
<path fill="none" stroke="black" d="M478.6,-279.36C501.75,-280.57 536.09,-282.36 563.23,-283.78"/>
<polygon fill="black" stroke="black" points="562.82,-287.32 572.99,-284.34 563.19,-280.33 562.82,-287.32"/>
</g>
<!-- u3&#45;&gt;u2 -->
<g id="edge6" class="edge">
<title>u3&#45;&gt;u2</title>
<path fill="none" stroke="black" d="M320.84,-218.86C349.2,-231.78 387.23,-249.11 414.79,-261.66"/>
<polygon fill="black" stroke="black" points="413.24,-265.26 423.79,-266.22 416.14,-258.89 413.24,-265.26"/>
</g>
<!-- u4 -->
<g id="node5" class="node">
<title>u4</title>
<polygon fill="#ffbbbb" stroke="black" stroke-width="0" points="640.52,-165 572.77,-165 572.77,-129 640.52,-129 640.52,-165"/>
<text text-anchor="middle" x="606.64" y="-142.32" font-family="Times,serif" font-size="14.00">Render</text>
</g>
<!-- u3&#45;&gt;u4 -->
<g id="edge7" class="edge">
<title>u3&#45;&gt;u4</title>
<path fill="none" stroke="black" d="M303.52,-183.2C329.54,-163.3 375.16,-132.24 420.39,-120 468.29,-107.04 524.93,-119.14 562.86,-131.02"/>
<polygon fill="black" stroke="black" points="561.45,-134.56 572.04,-134.34 563.62,-127.91 561.45,-134.56"/>
</g>
<!-- u5 -->
<g id="node6" class="node">
<title>u5</title>
<polygon fill="#ffbbbb" stroke="black" stroke-width="0" points="482.89,-165 420.39,-165 420.39,-129 482.89,-129 482.89,-165"/>
<text text-anchor="middle" x="451.64" y="-142.32" font-family="Times,serif" font-size="14.00">Elm18</text>
</g>
<!-- u3&#45;&gt;u5 -->
<g id="edge8" class="edge">
<title>u3&#45;&gt;u5</title>
<path fill="none" stroke="black" d="M324.73,-187.23C351.03,-178.83 384.44,-168.15 410.24,-159.91"/>
<polygon fill="black" stroke="black" points="410.97,-163.03 419.43,-156.65 408.84,-156.36 410.97,-163.03"/>
</g>
<!-- u6 -->
<g id="node7" class="node">
<title>u6</title>
<polygon fill="#ffbbbb" stroke="black" stroke-width="0" points="482.89,-219 420.39,-219 420.39,-183 482.89,-183 482.89,-219"/>
<text text-anchor="middle" x="451.64" y="-196.32" font-family="Times,serif" font-size="14.00">Elm19</text>
</g>
<!-- u3&#45;&gt;u6 -->
<g id="edge9" class="edge">
<title>u3&#45;&gt;u6</title>
<path fill="none" stroke="black" d="M324.73,-201C350.8,-201 383.85,-201 409.55,-201"/>
<polygon fill="black" stroke="black" points="409.43,-204.5 419.43,-201 409.43,-197.5 409.43,-204.5"/>
</g>
<!-- u3&#45;&gt;u1 -->
<g id="edge5" class="edge">
<title>u3&#45;&gt;u1</title>
<path fill="none" stroke="black" d="M324.8,-208.68C365.79,-216.33 429.01,-229.08 482.89,-244 510.1,-251.53 540.08,-261.75 563.6,-270.23"/>
<polygon fill="black" stroke="black" points="562.33,-273.85 572.92,-273.98 564.72,-267.27 562.33,-273.85"/>
</g>
<!-- u5&#45;&gt;u4 -->
<g id="edge10" class="edge">
<title>u5&#45;&gt;u4</title>
<path fill="none" stroke="black" d="M482.87,-147C505.48,-147 536.72,-147 562.03,-147"/>
<polygon fill="black" stroke="black" points="561.83,-150.5 571.83,-147 561.83,-143.5 561.83,-150.5"/>
</g>
<!-- u6&#45;&gt;u4 -->
<g id="edge11" class="edge">
<title>u6&#45;&gt;u4</title>
<path fill="none" stroke="black" d="M482.87,-190.33C505.68,-182.28 537.28,-171.13 562.71,-162.15"/>
<polygon fill="black" stroke="black" points="563.57,-165.21 571.83,-158.58 561.24,-158.61 563.57,-165.21"/>
</g>
<!-- u8 -->
<g id="node9" class="node">
<title>u8</title>
<polygon fill="#ffbbff" stroke="black" stroke-width="0" points="118.64,-422 64.64,-422 64.64,-386 118.64,-386 118.64,-422"/>
<text text-anchor="middle" x="91.64" y="-399.32" font-family="Times,serif" font-size="14.00">Spec</text>
</g>
</g>
</svg>
